<svg id="Layer_1" data-name="Layer 1" xmlns="http://www.w3.org/2000/svg" viewBox="0 0 250 57.08"><defs><style>.cls-1{fill:none;}.cls-2{fill:#248afd;}.cls-3{fill:#fff;}</style></defs><rect class="cls-1" width="250" height="57.08"/><path class="cls-2" d="M63.8,43.71H59.9V41.23q-.52.35-1.41,1a10.1,10.1,0,0,1-1.72,1,11.15,11.15,0,0,1-2.25.8,12,12,0,0,1-3,.33,7.47,7.47,0,0,1-5.35-2.09A7,7,0,0,1,44,37a7.35,7.35,0,0,1,1.14-4.29,7.67,7.67,0,0,1,3.24-2.58,17.68,17.68,0,0,1,5.12-1.27q3-.33,6.4-.5V27.7a4.61,4.61,0,0,0-.47-2.21,3.4,3.4,0,0,0-1.34-1.37,5.6,5.6,0,0,0-2-.65,17.42,17.42,0,0,0-2.44-.17,16.68,16.68,0,0,0-3.44.41,25.84,25.84,0,0,0-3.92,1.18h-.21v-4c.76-.21,1.87-.44,3.32-.69a25,25,0,0,1,4.27-.37,19.4,19.4,0,0,1,4.29.41,8.33,8.33,0,0,1,3.16,1.38,6.14,6.14,0,0,1,2,2.49,9.28,9.28,0,0,1,.68,3.77ZM59.9,38V31.48c-1.19.07-2.6.18-4.22.31a22.21,22.21,0,0,0-3.85.61,6.4,6.4,0,0,0-2.74,1.49,3.73,3.73,0,0,0-1,2.79,3.69,3.69,0,0,0,1.21,3,5.64,5.64,0,0,0,3.69,1,8.71,8.71,0,0,0,3.78-.8A17.2,17.2,0,0,0,59.9,38Z"/><path class="cls-2" d="M91.87,31.77A15.57,15.57,0,0,1,91.05,37a11.23,11.23,0,0,1-2.29,4,9.56,9.56,0,0,1-3.25,2.39,9.35,9.35,0,0,1-4,.85,12.46,12.46,0,0,1-3.29-.4,13.32,13.32,0,0,1-3-1.23v9.77H71.36V20.4h3.92v2.44a15.16,15.16,0,0,1,3.52-2.2A9.92,9.92,0,0,1,83,19.76a7.68,7.68,0,0,1,6.56,3.18Q91.88,26.12,91.87,31.77Zm-4.05.11q0-4.21-1.44-6.3A5,5,0,0,0,82,23.49a8.54,8.54,0,0,0-3.4.73,15.62,15.62,0,0,0-3.28,1.92V39.35a15.53,15.53,0,0,0,2.87,1,12.46,12.46,0,0,0,2.72.27A6.27,6.27,0,0,0,86,38.43C87.21,37,87.82,34.77,87.82,31.88Z"/><path class="cls-2" d="M118.49,31.77a15.83,15.83,0,0,1-.81,5.19,11.25,11.25,0,0,1-2.3,4,9.62,9.62,0,0,1-3.24,2.39,9.4,9.4,0,0,1-4,.85,12.33,12.33,0,0,1-3.28-.4,13.39,13.39,0,0,1-3-1.23v9.77H98V20.4h3.92v2.44a15.59,15.59,0,0,1,3.52-2.2,10,10,0,0,1,4.16-.88,7.68,7.68,0,0,1,6.56,3.18Q118.49,26.12,118.49,31.77Zm-4,.11q0-4.21-1.44-6.3a5,5,0,0,0-4.42-2.09,8.54,8.54,0,0,0-3.4.73,15.87,15.87,0,0,0-3.28,1.92V39.35a15.79,15.79,0,0,0,2.87,1,12.49,12.49,0,0,0,2.73.27,6.3,6.3,0,0,0,5.11-2.21C113.83,37,114.44,34.77,114.44,31.88Z"/><path class="cls-2" d="M144.47,32.07q0,5.68-2.92,9a11,11,0,0,1-15.68,0q-2.91-3.3-2.91-9t2.91-9a11,11,0,0,1,15.68,0Q144.48,26.38,144.47,32.07Zm-4.05,0c0-3-.59-5.27-1.77-6.73a6.65,6.65,0,0,0-9.88,0c-1.18,1.46-1.76,3.71-1.76,6.73s.59,5.13,1.77,6.64a6.51,6.51,0,0,0,9.86,0Q140.43,36.5,140.42,32.07Z"/><path class="cls-2" d="M154.76,16.5h-4.43V12.43h4.43Zm-.25,27.21h-3.93V20.4h3.93Z"/><path class="cls-2" d="M181.76,43.71h-3.93V30.44a23.93,23.93,0,0,0-.18-3,5.65,5.65,0,0,0-.69-2.2,3.16,3.16,0,0,0-1.51-1.3,6.31,6.31,0,0,0-2.54-.43,8.13,8.13,0,0,0-3.36.79,17.18,17.18,0,0,0-3.36,2v17.4h-3.92V20.4h3.92V23a15.68,15.68,0,0,1,3.8-2.38,10,10,0,0,1,4-.85A7.21,7.21,0,0,1,179.77,22c1.32,1.52,2,3.7,2,6.55Z"/><path class="cls-2" d="M201.41,43.5A21.39,21.39,0,0,1,199,44a15.81,15.81,0,0,1-2.33.19,7.21,7.21,0,0,1-5.42-1.92q-1.86-1.92-1.86-6.16V23.7h-2.65V20.4h2.65V13.71h3.93V20.4h8.09v3.3h-8.09V34.32c0,1.22,0,2.18.08,2.87a4.66,4.66,0,0,0,.58,1.93,2.87,2.87,0,0,0,1.27,1.22,5.84,5.84,0,0,0,2.45.39,7.56,7.56,0,0,0,2-.29,11.06,11.06,0,0,0,1.5-.47h.21Z"/><path class="cls-2" d="M218.25,43.5a21.39,21.39,0,0,1-2.41.48,15.92,15.92,0,0,1-2.33.19,7.2,7.2,0,0,1-5.42-1.92q-1.86-1.92-1.86-6.16V23.7h-2.65V20.4h2.65V13.71h3.92V20.4h8.1v3.3h-8.1V34.32c0,1.22,0,2.18.09,2.87a4.66,4.66,0,0,0,.58,1.93,2.9,2.9,0,0,0,1.26,1.22,5.93,5.93,0,0,0,2.46.39,7.67,7.67,0,0,0,2-.29A12.1,12.1,0,0,0,218,40h.21Z"/><path class="cls-2" d="M242.85,32.07q0,5.68-2.92,9a11,11,0,0,1-15.68,0q-2.91-3.3-2.91-9t2.91-9a11,11,0,0,1,15.68,0Q242.86,26.38,242.85,32.07Zm-4,0c0-3-.59-5.27-1.77-6.73a6.65,6.65,0,0,0-9.88,0c-1.18,1.46-1.76,3.71-1.76,6.73s.59,5.13,1.77,6.64a6.51,6.51,0,0,0,9.86,0Q238.81,36.5,238.8,32.07Z"/><path class="cls-2" d="M21.48,51.8s.59-6.89,1.72-9.79c.48-2.66,5.67-8.75,5.67-8.75C33.34,29.75,36,25.64,36,20.36,36,11.77,28.5,4.8,19.31,4.8s-16.64,7-16.64,15.56A15.72,15.72,0,0,0,9,32.83s5.23,5.66,5.71,8.32c1.13,2.9,1.45,9.47,1.45,9.47.12.74.12,1,.2,1.55a2.65,2.65,0,0,0,2.52,2.52,3,3,0,0,0,2.63-2.89C21.48,51.65,21.51,51.94,21.48,51.8Z"/><circle class="cls-3" cx="19.33" cy="20.64" r="8.22"/><path class="cls-2" d="M24.54,20.4a5.2,5.2,0,1,0-1.65,3.8l.32-.31v1.38a.68.68,0,1,0,1.33,0V21.21C24.52,20.94,24.54,20.67,24.54,20.4Zm-5.1,2.66A2.54,2.54,0,1,1,22,20.52,2.53,2.53,0,0,1,19.44,23.06Z"/></svg>