<svg id="Layer_1" data-name="Layer 1" xmlns="http://www.w3.org/2000/svg" viewBox="0 0 150 35.63"><defs><style>.cls-1{font-size:25.73px;fill:#4d7fc1;font-family:MSReferenceSansSerif, MS Reference Sans Serif;}.cls-2{fill:none;}.cls-3{fill:#4d7fc0;}.cls-4{fill:#fffeff;}</style></defs><text class="cls-1" transform="translate(25.17 28.01)">Appointto</text><rect class="cls-2" width="150" height="35.63"/><path class="cls-3" d="M12.91,30.92A31,31,0,0,1,14,25c.29-1.6,3.41-5.27,3.41-5.27,2.69-2.12,4.27-4.59,4.27-7.77,0-5.18-4.49-9.37-10-9.37s-10,4.19-10,9.37a9.49,9.49,0,0,0,3.8,7.51s3.15,3.41,3.44,5a25.69,25.69,0,0,1,.87,5.7c.07.45.08.59.12.94a1.59,1.59,0,0,0,1.52,1.51,1.77,1.77,0,0,0,1.58-1.74C12.91,30.83,12.93,31,12.91,30.92Z"/><circle class="cls-4" cx="11.62" cy="12.16" r="4.95"/><path class="cls-3" d="M11.62,8.87a3.14,3.14,0,1,0,0,6.28,3.09,3.09,0,0,0,2.14-.85l.2-.19V15a.41.41,0,1,0,.8,0V12.5a4,4,0,0,1,0-.49A3.15,3.15,0,0,0,11.62,8.87Zm.06,4.75a1.53,1.53,0,1,1,1.53-1.53A1.54,1.54,0,0,1,11.68,13.62Z"/></svg>