<svg id="Layer_1" data-name="Layer 1" xmlns="http://www.w3.org/2000/svg" viewBox="0 0 250 57.08"><defs><style>.cls-1{font-size:42.73px;fill:#4d7fc1;font-family:MSReferenceSansSerif, MS Reference Sans Serif;}.cls-2{fill:none;}.cls-3{fill:#4d7fc0;}.cls-4{fill:#fffeff;}</style></defs><text class="cls-1" transform="translate(41.83 45.34)">Appointto</text><rect class="cls-2" width="250" height="57.08"/><path class="cls-3" d="M21.48,50.17s.59-6.89,1.72-9.79c.48-2.66,5.67-8.75,5.67-8.75C33.34,28.12,36,24,36,18.73,36,10.14,28.5,3.17,19.31,3.17s-16.64,7-16.64,15.56A15.72,15.72,0,0,0,9,31.2s5.23,5.66,5.71,8.32c1.13,2.9,1.45,9.47,1.45,9.47.12.74.12,1,.2,1.55a2.65,2.65,0,0,0,2.52,2.52,3,3,0,0,0,2.63-2.89C21.48,50,21.51,50.31,21.48,50.17Z"/><circle class="cls-4" cx="19.33" cy="19.01" r="8.22"/><path class="cls-3" d="M24.54,18.77a5.22,5.22,0,1,0-1.65,3.8l.32-.31v1.38a.73.73,0,0,0,.67.82c.36,0,.66-.32.66-.82V19.58C24.52,19.31,24.54,19,24.54,18.77Zm-5.1,2.66A2.54,2.54,0,1,1,22,18.89,2.53,2.53,0,0,1,19.44,21.43Z"/></svg>